<?xml version="1.0" encoding="utf-8"?>
<!-- Generator: Adobe Illustrator 16.0.0, SVG Export Plug-In . SVG Version: 6.00 Build 0)  -->
<!DOCTYPE svg PUBLIC "-//W3C//DTD SVG 1.1//EN" "http://www.w3.org/Graphics/SVG/1.1/DTD/svg11.dtd">
<svg version="1.1" xmlns="http://www.w3.org/2000/svg" xmlns:xlink="http://www.w3.org/1999/xlink" x="0px" y="0px" width="371.5px"
	 height="195.01px" viewBox="0 0 371.5 195.01" style="enable-background:new 0 0 371.5 195.01;" xml:space="preserve">
<g id="Layer_1" style="display:none;">
	
		<image style="display:inline;overflow:visible;" width="400" height="400" xlink:href="logo.png"  transform="matrix(1 0 0 1 -14 -102.7734)">
	</image>
</g>
<g id="Layer_2">
	<path style="fill:#FFFFFF;" d="M196.375,11.971c0,0-15.75,11-23.5,27.5c0,0,0,2.25-3,3.5c0,0-32.5,11.25-39.5,45v89.75
		c0,0-2.5,16.75-21,16.75c0,0-15.75,1.5-21.25-15.75v-91.25c0,0,0.25-33.25,28.75-60.75c0,0,8.75-13,42.75-23.75
		c0,0,16-3.75,33.25-2C192.875,0.971,200.625,4.721,196.375,11.971z"/>
	<path style="fill:#FFFFFF;" d="M108.25,11.971c0,0-15.75,11-23.5,27.5c0,0,0,2.25-3,3.5c0,0-32.5,11.25-39.5,45v89.75
		c0,0-2.5,16.75-21,16.75c0,0-15.75,1.5-21.25-15.75v-91.25c0,0,0.25-33.25,28.75-60.75c0,0,8.75-13,42.75-23.75
		c0,0,16-3.75,33.25-2C104.75,0.971,112.5,4.721,108.25,11.971z"/>
</g>
<g id="Layer_3">
	<path style="fill:#FFFFFF;" d="M273.75,40.977c0,0-43-1-54.5,47.25v88.5c0,0-2.703,17.066-20.727,17.283
		c0,0-19.023-0.533-21.523-17.533v-89.5c0,0,2.75-47.5,44.25-72.25c0,0,18.5-14.181,52.5-14.715c0,0,40.25-1.285,66,23.465
		c0,0,25.25,19.25,31.75,59.5c0,0-0.5,4.75-3.75,4.5l-34-0.25c0,0-3,0.75-6.5-6.125C327.25,81.102,318.75,40.477,273.75,40.977z"/>
</g>
<g id="Layer_4">
	<path style="fill:#FFFFFF;" d="M303.75,143.477c0,0,14.75-6.5,25-33.5c0,0,1.25-4.25,6.25-4.75h29.5c0,0,3-0.75,7,5.75
		c0,0-3,24.25-16.5,40.75c0,0-18,30.5-55.5,39.25c0,0-29,10.25-59.75-3.5c0,0-4.25-2.5-4-6l-0.011-29.75c0,0,0.261-6.25,5.761-6.75
		c0,0,0.25-0.5,5.75,1.5C247.25,146.477,278.75,161.227,303.75,143.477z"/>
</g>
</svg>
